<svg xmlns="http://www.w3.org/2000/svg" viewBox="0 0 1200 400" width="1200" height="400">
  <defs>
    <style>
      @keyframes breathe { 0%,100%{opacity:.4} 50%{opacity:1} }
      @keyframes breatheSlow { 0%,100%{opacity:.2} 50%{opacity:.6} }
      @keyframes titlePulse { 0%,100%{opacity:1} 50%{opacity:.78} }
      @keyframes subtitleGlow { 0%,100%{opacity:.45} 50%{opacity:.75} }
      @keyframes hudFlicker { 0%,92%,100%{opacity:.25} 94%{opacity:.05} 96%{opacity:.3} 98%{opacity:.08} }
      @keyframes shimmer { 0%,100%{opacity:.1} 50%{opacity:.3} }
      @keyframes diamondPulse { 0%,100%{opacity:.2} 50%{opacity:.6} }
      @keyframes dendritePulse { 0%,100%{stroke-opacity:.06} 50%{stroke-opacity:.18} }
      @keyframes dendritePulse2 { 0%,100%{stroke-opacity:.04} 50%{stroke-opacity:.14} }
      @keyframes somaGlow { 0%,100%{opacity:.5} 50%{opacity:.9} }
      @keyframes fireFlash { 0%,15%,100%{opacity:0} 5%,10%{opacity:.7} }

      .b1{animation:breathe 3s ease-in-out infinite}
      .b2{animation:breathe 3s ease-in-out .6s infinite}
      .b3{animation:breathe 3s ease-in-out 1.2s infinite}
      .b4{animation:breathe 3s ease-in-out 1.8s infinite}
      .b5{animation:breathe 3s ease-in-out 2.4s infinite}
      .b6{animation:breathe 3.5s ease-in-out .3s infinite}
      .b7{animation:breathe 3.5s ease-in-out 1.5s infinite}
      .b8{animation:breathe 3.5s ease-in-out 2.7s infinite}
      .bs1{animation:breatheSlow 5s ease-in-out infinite}
      .bs2{animation:breatheSlow 5s ease-in-out 1.2s infinite}
      .bs3{animation:breatheSlow 5s ease-in-out 2.5s infinite}
      .bs4{animation:breatheSlow 5s ease-in-out 3.8s infinite}
      .dp1{animation:dendritePulse 5s ease-in-out infinite}
      .dp2{animation:dendritePulse 5s ease-in-out 1.7s infinite}
      .dp3{animation:dendritePulse 5s ease-in-out 3.3s infinite}
      .dp4{animation:dendritePulse2 6s ease-in-out infinite}
      .dp5{animation:dendritePulse2 6s ease-in-out 2s infinite}
      .dp6{animation:dendritePulse2 6s ease-in-out 4s infinite}
      .sg1{animation:somaGlow 4s ease-in-out infinite}
      .sg2{animation:somaGlow 4s ease-in-out 1s infinite}
      .sg3{animation:somaGlow 4s ease-in-out 2s infinite}
      .sg4{animation:somaGlow 4s ease-in-out 3s infinite}
      .ff1{animation:fireFlash 5s ease-in-out infinite}
      .ff2{animation:fireFlash 5s ease-in-out 1.5s infinite}
      .ff3{animation:fireFlash 5s ease-in-out 3s infinite}
      .ff4{animation:fireFlash 6s ease-in-out .8s infinite}
      .ff5{animation:fireFlash 6s ease-in-out 2.8s infinite}
      .ff6{animation:fireFlash 7s ease-in-out 1.2s infinite}
      .title-glow{animation:titlePulse 4s ease-in-out infinite}
      .sub-glow{animation:subtitleGlow 5s ease-in-out infinite}
      .hf1{animation:hudFlicker 6s ease-in-out infinite}
      .hf2{animation:hudFlicker 6s ease-in-out 3s infinite}
      .sh-l{animation:shimmer 5s ease-in-out infinite}
      .sh-r{animation:shimmer 5s ease-in-out 2.5s infinite}
      .dm1{animation:diamondPulse 3s ease-in-out infinite}
      .dm2{animation:diamondPulse 3s ease-in-out 1.5s infinite}
    </style>

    <radialGradient id="bg" cx="50%" cy="50%" r="60%">
      <stop offset="0%" stop-color="#0d1a0d"/><stop offset="100%" stop-color="#050808"/>
    </radialGradient>
    <radialGradient id="hub" cx="50%" cy="50%" r="50%">
      <stop offset="0%" stop-color="#a3e635" stop-opacity=".12"/>
      <stop offset="50%" stop-color="#84cc16" stop-opacity=".04"/>
      <stop offset="100%" stop-color="#84cc16" stop-opacity="0"/>
    </radialGradient>
    <linearGradient id="tg" x1="0%" y1="0%" x2="100%" y2="100%">
      <stop offset="0%" stop-color="#d9f99d"/><stop offset="50%" stop-color="#a3e635"/><stop offset="100%" stop-color="#65a30d"/>
    </linearGradient>
    <linearGradient id="lv" x1="0%" y1="0%" x2="0%" y2="100%">
      <stop offset="0%" stop-color="#84cc16" stop-opacity=".1"/>
      <stop offset="50%" stop-color="#a3e635" stop-opacity=".6"/>
      <stop offset="100%" stop-color="#84cc16" stop-opacity=".1"/>
    </linearGradient>
    <pattern id="scan" width="4" height="4" patternUnits="userSpaceOnUse">
      <line x1="0" y1="0" x2="4" y2="0" stroke="#a3e635" stroke-opacity=".03" stroke-width="1"/>
    </pattern>
    <pattern id="hex" width="60" height="52" patternUnits="userSpaceOnUse">
      <polygon points="30,2 55,15 55,37 30,50 5,37 5,15" fill="none" stroke="#a3e635" stroke-opacity=".04" stroke-width=".5"/>
    </pattern>
    <filter id="ng" x="-50%" y="-50%" width="200%" height="200%">
      <feGaussianBlur in="SourceGraphic" stdDeviation="3" result="b"/>
      <feColorMatrix in="b" type="matrix" values="0 0 0 0 .64 0 0 0 0 .8 0 0 0 0 .09 0 0 0 1 0" result="g"/>
      <feMerge><feMergeNode in="g"/><feMergeNode in="SourceGraphic"/></feMerge>
    </filter>
    <filter id="tn" x="-50%" y="-50%" width="200%" height="200%">
      <feGaussianBlur in="SourceGraphic" stdDeviation="8" result="b1"/>
      <feGaussianBlur in="SourceGraphic" stdDeviation="3" result="b2"/>
      <feColorMatrix in="b1" type="matrix" values="0 0 0 0 .64 0 0 0 0 .8 0 0 0 0 .09 0 0 0 .6 0" result="g1"/>
      <feColorMatrix in="b2" type="matrix" values="0 0 0 0 .64 0 0 0 0 .8 0 0 0 0 .09 0 0 0 .9 0" result="g2"/>
      <feMerge><feMergeNode in="g1"/><feMergeNode in="g2"/><feMergeNode in="SourceGraphic"/></feMerge>
    </filter>
    <filter id="ngf" x="-100%" y="-100%" width="300%" height="300%">
      <feGaussianBlur in="SourceGraphic" stdDeviation="6"/>
      <feColorMatrix type="matrix" values="0 0 0 0 .64 0 0 0 0 .8 0 0 0 0 .09 0 0 0 .5 0"/>
    </filter>
    <filter id="somaF" x="-200%" y="-200%" width="500%" height="500%">
      <feGaussianBlur in="SourceGraphic" stdDeviation="12"/>
      <feColorMatrix type="matrix" values="0 0 0 0 .64 0 0 0 0 .8 0 0 0 0 .09 0 0 0 .4 0"/>
    </filter>
    <radialGradient id="sg" cx="50%" cy="50%" r="50%">
      <stop offset="0%" stop-color="#d9f99d" stop-opacity="1"/>
      <stop offset="60%" stop-color="#a3e635" stop-opacity=".6"/>
      <stop offset="100%" stop-color="#84cc16" stop-opacity="0"/>
    </radialGradient>

    <!-- Signal travel paths -->
    <path id="p1" d="M40,180 C100,160 140,110 200,130 C260,150 300,100 340,120 C380,140 420,160 480,150" fill="none"/>
    <path id="p2" d="M1160,220 C1100,240 1060,290 1000,270 C940,250 900,300 860,280 C820,260 780,240 720,250" fill="none"/>
    <path id="p3" d="M60,320 C120,300 180,340 240,310 C300,280 360,300 420,270 C460,250 500,230 540,220" fill="none"/>
    <path id="p4" d="M1140,80 C1080,100 1020,60 960,90 C900,120 840,80 780,110 C740,130 700,170 660,180" fill="none"/>
    <path id="p5" d="M200,60 C260,80 320,50 380,70 C440,90 500,120 560,140 C590,150 610,160 620,170" fill="none"/>
    <path id="p6" d="M1000,340 C940,320 880,350 820,330 C760,310 700,280 660,250 C640,235 620,220 610,200" fill="none"/>
    <path id="p7" d="M100,240 C160,220 220,260 280,230 C340,200 400,220 460,190" fill="none"/>
    <path id="p8" d="M1100,160 C1040,180 980,140 920,170 C860,200 800,180 740,210" fill="none"/>
  </defs>

  <!-- Background layers -->
  <rect width="1200" height="400" fill="url(#bg)" rx="8"/>
  <rect width="1200" height="400" fill="url(#hex)" rx="8" opacity=".8"/>
  <rect width="1200" height="400" fill="url(#scan)" rx="8"/>

  <!-- Scanline sweep -->
  <rect width="1200" height="6" fill="#a3e635" opacity=".015">
    <animateTransform attributeName="transform" type="translate" values="0,-10;0,410;0,-10" dur="8s" repeatCount="indefinite"/>
  </rect>

  <!-- Border + corners -->
  <rect x="2" y="2" width="1196" height="396" rx="8" fill="none" stroke="#a3e635" stroke-opacity=".15" stroke-width="1"/>
  <line x1="2" y1="30" x2="2" y2="2" stroke="#a3e635" stroke-opacity=".5" stroke-width="2"/>
  <line x1="2" y1="2" x2="30" y2="2" stroke="#a3e635" stroke-opacity=".5" stroke-width="2"/>
  <line x1="1170" y1="2" x2="1198" y2="2" stroke="#a3e635" stroke-opacity=".5" stroke-width="2"/>
  <line x1="1198" y1="2" x2="1198" y2="30" stroke="#a3e635" stroke-opacity=".5" stroke-width="2"/>
  <line x1="2" y1="370" x2="2" y2="398" stroke="#a3e635" stroke-opacity=".5" stroke-width="2"/>
  <line x1="2" y1="398" x2="30" y2="398" stroke="#a3e635" stroke-opacity=".5" stroke-width="2"/>
  <line x1="1170" y1="398" x2="1198" y2="398" stroke="#a3e635" stroke-opacity=".5" stroke-width="2"/>
  <line x1="1198" y1="370" x2="1198" y2="398" stroke="#a3e635" stroke-opacity=".5" stroke-width="2"/>

  <!-- Hub glow -->
  <ellipse cx="600" cy="185" rx="300" ry="140" fill="url(#hub)">
    <animate attributeName="opacity" values=".7;1;.7" dur="4s" repeatCount="indefinite"/>
  </ellipse>

  <!-- ==================== DENDRITES (branching tree structures) ==================== -->
  <!-- These are the fine branching structures that make neurons look organic -->

  <!-- LEFT NEURON CLUSTER — soma at ~130,190 -->
  <!-- Primary dendrites (thick, close to soma) -->
  <g class="dp1">
    <path d="M130,190 C100,170 70,175 40,160" fill="none" stroke="#84cc16" stroke-opacity=".12" stroke-width="1.8"/>
    <path d="M130,190 C110,210 80,220 50,240" fill="none" stroke="#84cc16" stroke-opacity=".1" stroke-width="1.6"/>
    <path d="M130,190 C140,160 130,130 120,100" fill="none" stroke="#84cc16" stroke-opacity=".1" stroke-width="1.5"/>
    <path d="M130,190 C120,220 110,250 90,280" fill="none" stroke="#84cc16" stroke-opacity=".08" stroke-width="1.4"/>
    <path d="M130,190 C160,185 190,175 220,160" fill="none" stroke="#84cc16" stroke-opacity=".12" stroke-width="1.8"/>
  </g>
  <!-- Secondary dendrites (thinner, branch from primaries) -->
  <g class="dp4">
    <path d="M70,175 C55,165 35,170 20,155" fill="none" stroke="#84cc16" stroke-opacity=".07" stroke-width=".8"/>
    <path d="M70,175 C60,185 45,195 25,200" fill="none" stroke="#84cc16" stroke-opacity=".06" stroke-width=".7"/>
    <path d="M40,160 C30,145 25,130 15,120" fill="none" stroke="#84cc16" stroke-opacity=".05" stroke-width=".6"/>
    <path d="M80,220 C65,230 55,245 40,260" fill="none" stroke="#84cc16" stroke-opacity=".06" stroke-width=".7"/>
    <path d="M50,240 C35,250 30,270 20,285" fill="none" stroke="#84cc16" stroke-opacity=".05" stroke-width=".6"/>
    <path d="M120,100 C115,80 105,65 100,45" fill="none" stroke="#84cc16" stroke-opacity=".05" stroke-width=".6"/>
    <path d="M120,100 C135,85 140,70 150,55" fill="none" stroke="#84cc16" stroke-opacity=".06" stroke-width=".7"/>
    <path d="M90,280 C80,300 75,320 65,340" fill="none" stroke="#84cc16" stroke-opacity=".05" stroke-width=".6"/>
    <path d="M90,280 C100,295 95,310 100,330" fill="none" stroke="#84cc16" stroke-opacity=".04" stroke-width=".5"/>
  </g>
  <!-- Axon (long projection toward center) -->
  <path d="M130,190 C170,195 220,190 270,185 C320,180 370,175 410,175" fill="none" stroke="#a3e635" stroke-opacity=".15" stroke-width="1.2" class="dp1"/>
  <!-- Axon terminals (synaptic boutons) -->
  <g class="dp4">
    <path d="M410,175 C425,168 435,160 445,155" fill="none" stroke="#a3e635" stroke-opacity=".1" stroke-width=".8"/>
    <path d="M410,175 C425,178 438,180 450,178" fill="none" stroke="#a3e635" stroke-opacity=".1" stroke-width=".8"/>
    <path d="M410,175 C420,185 430,192 442,198" fill="none" stroke="#a3e635" stroke-opacity=".1" stroke-width=".8"/>
    <circle cx="445" cy="155" r="2" fill="#a3e635" opacity=".3" class="b1"/>
    <circle cx="450" cy="178" r="2" fill="#a3e635" opacity=".3" class="b3"/>
    <circle cx="442" cy="198" r="2" fill="#a3e635" opacity=".3" class="b5"/>
  </g>

  <!-- RIGHT NEURON CLUSTER — soma at ~1070,210 -->
  <g class="dp2">
    <path d="M1070,210 C1100,190 1130,185 1160,170" fill="none" stroke="#84cc16" stroke-opacity=".12" stroke-width="1.8"/>
    <path d="M1070,210 C1090,230 1120,240 1150,260" fill="none" stroke="#84cc16" stroke-opacity=".1" stroke-width="1.6"/>
    <path d="M1070,210 C1060,180 1070,150 1080,120" fill="none" stroke="#84cc16" stroke-opacity=".1" stroke-width="1.5"/>
    <path d="M1070,210 C1080,240 1090,270 1110,300" fill="none" stroke="#84cc16" stroke-opacity=".08" stroke-width="1.4"/>
    <path d="M1070,210 C1040,215 1010,225 980,240" fill="none" stroke="#84cc16" stroke-opacity=".12" stroke-width="1.8"/>
  </g>
  <g class="dp5">
    <path d="M1130,185 C1145,175 1160,165 1175,155" fill="none" stroke="#84cc16" stroke-opacity=".07" stroke-width=".8"/>
    <path d="M1160,170 C1170,155 1175,140 1180,125" fill="none" stroke="#84cc16" stroke-opacity=".05" stroke-width=".6"/>
    <path d="M1120,240 C1135,250 1150,265 1160,280" fill="none" stroke="#84cc16" stroke-opacity=".06" stroke-width=".7"/>
    <path d="M1150,260 C1160,275 1170,290 1180,305" fill="none" stroke="#84cc16" stroke-opacity=".05" stroke-width=".6"/>
    <path d="M1080,120 C1085,100 1090,80 1100,60" fill="none" stroke="#84cc16" stroke-opacity=".05" stroke-width=".6"/>
    <path d="M1080,120 C1065,105 1055,90 1040,75" fill="none" stroke="#84cc16" stroke-opacity=".06" stroke-width=".7"/>
    <path d="M1110,300 C1120,320 1125,340 1135,360" fill="none" stroke="#84cc16" stroke-opacity=".05" stroke-width=".6"/>
    <path d="M1110,300 C1100,315 1095,335 1085,350" fill="none" stroke="#84cc16" stroke-opacity=".04" stroke-width=".5"/>
  </g>
  <!-- Axon toward center -->
  <path d="M1070,210 C1030,205 980,210 930,215 C880,220 830,225 790,225" fill="none" stroke="#a3e635" stroke-opacity=".15" stroke-width="1.2" class="dp2"/>
  <g class="dp5">
    <path d="M790,225 C775,218 765,210 755,202" fill="none" stroke="#a3e635" stroke-opacity=".1" stroke-width=".8"/>
    <path d="M790,225 C775,228 762,230 750,228" fill="none" stroke="#a3e635" stroke-opacity=".1" stroke-width=".8"/>
    <path d="M790,225 C780,235 770,242 758,248" fill="none" stroke="#a3e635" stroke-opacity=".1" stroke-width=".8"/>
    <circle cx="755" cy="202" r="2" fill="#a3e635" opacity=".3" class="b2"/>
    <circle cx="750" cy="228" r="2" fill="#a3e635" opacity=".3" class="b4"/>
    <circle cx="758" cy="248" r="2" fill="#a3e635" opacity=".3" class="b6"/>
  </g>

  <!-- TOP-LEFT NEURON — soma at ~220,80 -->
  <g class="dp3">
    <path d="M220,80 C190,60 160,55 130,45" fill="none" stroke="#84cc16" stroke-opacity=".1" stroke-width="1.4"/>
    <path d="M220,80 C200,65 175,50 155,35" fill="none" stroke="#84cc16" stroke-opacity=".08" stroke-width="1.2"/>
    <path d="M220,80 C240,60 250,40 260,20" fill="none" stroke="#84cc16" stroke-opacity=".08" stroke-width="1.2"/>
    <path d="M220,80 C250,85 280,80 310,70" fill="none" stroke="#84cc16" stroke-opacity=".1" stroke-width="1.4"/>
    <path d="M220,80 C215,100 220,120 230,140" fill="none" stroke="#84cc16" stroke-opacity=".1" stroke-width="1.4"/>
  </g>
  <g class="dp6">
    <path d="M130,45 C115,38 100,35 85,28" fill="none" stroke="#84cc16" stroke-opacity=".05" stroke-width=".6"/>
    <path d="M155,35 C140,25 130,15 120,8" fill="none" stroke="#84cc16" stroke-opacity=".04" stroke-width=".5"/>
    <path d="M260,20 C270,12 275,5 280,0" fill="none" stroke="#84cc16" stroke-opacity=".04" stroke-width=".5"/>
    <path d="M310,70 C330,62 350,58 370,50" fill="none" stroke="#84cc16" stroke-opacity=".06" stroke-width=".7"/>
  </g>

  <!-- BOTTOM-LEFT NEURON — soma at ~200,330 -->
  <g class="dp2">
    <path d="M200,330 C170,340 140,350 110,365" fill="none" stroke="#84cc16" stroke-opacity=".1" stroke-width="1.4"/>
    <path d="M200,330 C180,350 165,370 150,390" fill="none" stroke="#84cc16" stroke-opacity=".08" stroke-width="1.2"/>
    <path d="M200,330 C220,350 235,365 250,380" fill="none" stroke="#84cc16" stroke-opacity=".08" stroke-width="1.2"/>
    <path d="M200,330 C230,325 260,330 290,320" fill="none" stroke="#84cc16" stroke-opacity=".1" stroke-width="1.4"/>
    <path d="M200,330 C195,310 200,290 210,270" fill="none" stroke="#84cc16" stroke-opacity=".1" stroke-width="1.4"/>
  </g>
  <g class="dp6">
    <path d="M110,365 C90,375 75,380 55,390" fill="none" stroke="#84cc16" stroke-opacity=".05" stroke-width=".6"/>
    <path d="M290,320 C310,312 330,308 350,300" fill="none" stroke="#84cc16" stroke-opacity=".06" stroke-width=".7"/>
  </g>

  <!-- TOP-RIGHT NEURON — soma at ~980,70 -->
  <g class="dp1">
    <path d="M980,70 C1010,50 1040,45 1070,35" fill="none" stroke="#84cc16" stroke-opacity=".1" stroke-width="1.4"/>
    <path d="M980,70 C1000,55 1020,40 1040,25" fill="none" stroke="#84cc16" stroke-opacity=".08" stroke-width="1.2"/>
    <path d="M980,70 C960,50 950,35 940,18" fill="none" stroke="#84cc16" stroke-opacity=".08" stroke-width="1.2"/>
    <path d="M980,70 C950,75 920,80 890,90" fill="none" stroke="#84cc16" stroke-opacity=".1" stroke-width="1.4"/>
    <path d="M980,70 C985,90 980,115 970,140" fill="none" stroke="#84cc16" stroke-opacity=".1" stroke-width="1.4"/>
  </g>
  <g class="dp4">
    <path d="M1070,35 C1085,28 1100,22 1115,15" fill="none" stroke="#84cc16" stroke-opacity=".05" stroke-width=".6"/>
    <path d="M940,18 C930,10 925,5 920,0" fill="none" stroke="#84cc16" stroke-opacity=".04" stroke-width=".5"/>
    <path d="M890,90 C870,98 850,100 830,108" fill="none" stroke="#84cc16" stroke-opacity=".06" stroke-width=".7"/>
  </g>

  <!-- BOTTOM-RIGHT NEURON — soma at ~1000,330 -->
  <g class="dp3">
    <path d="M1000,330 C1030,340 1060,350 1090,365" fill="none" stroke="#84cc16" stroke-opacity=".1" stroke-width="1.4"/>
    <path d="M1000,330 C1020,350 1035,370 1050,390" fill="none" stroke="#84cc16" stroke-opacity=".08" stroke-width="1.2"/>
    <path d="M1000,330 C980,350 965,365 950,380" fill="none" stroke="#84cc16" stroke-opacity=".08" stroke-width="1.2"/>
    <path d="M1000,330 C970,325 940,330 910,320" fill="none" stroke="#84cc16" stroke-opacity=".1" stroke-width="1.4"/>
    <path d="M1000,330 C1005,310 1000,290 990,270" fill="none" stroke="#84cc16" stroke-opacity=".1" stroke-width="1.4"/>
  </g>
  <g class="dp4">
    <path d="M1090,365 C1110,375 1125,385 1140,395" fill="none" stroke="#84cc16" stroke-opacity=".05" stroke-width=".6"/>
    <path d="M910,320 C890,312 870,308 850,300" fill="none" stroke="#84cc16" stroke-opacity=".06" stroke-width=".7"/>
  </g>

  <!-- CENTRAL INTERNEURONS — smaller neurons bridging the gaps -->
  <!-- interneuron at ~350,200 -->
  <g class="dp2">
    <path d="M350,200 C320,185 290,180 260,175" fill="none" stroke="#84cc16" stroke-opacity=".09" stroke-width="1.2"/>
    <path d="M350,200 C330,215 310,225 290,235" fill="none" stroke="#84cc16" stroke-opacity=".08" stroke-width="1"/>
    <path d="M350,200 C370,190 390,185 410,180" fill="none" stroke="#84cc16" stroke-opacity=".09" stroke-width="1.2"/>
    <path d="M350,200 C360,220 365,240 370,260" fill="none" stroke="#84cc16" stroke-opacity=".07" stroke-width=".9"/>
    <path d="M350,200 C340,180 335,160 330,140" fill="none" stroke="#84cc16" stroke-opacity=".07" stroke-width=".9"/>
  </g>

  <!-- interneuron at ~850,200 -->
  <g class="dp3">
    <path d="M850,200 C880,185 910,180 940,175" fill="none" stroke="#84cc16" stroke-opacity=".09" stroke-width="1.2"/>
    <path d="M850,200 C870,215 890,225 910,235" fill="none" stroke="#84cc16" stroke-opacity=".08" stroke-width="1"/>
    <path d="M850,200 C830,190 810,185 790,180" fill="none" stroke="#84cc16" stroke-opacity=".09" stroke-width="1.2"/>
    <path d="M850,200 C840,220 835,240 830,260" fill="none" stroke="#84cc16" stroke-opacity=".07" stroke-width=".9"/>
    <path d="M850,200 C860,180 865,160 870,140" fill="none" stroke="#84cc16" stroke-opacity=".07" stroke-width=".9"/>
  </g>

  <!-- interneuron at ~500,300 -->
  <g class="dp1">
    <path d="M500,300 C470,290 440,285 410,280" fill="none" stroke="#84cc16" stroke-opacity=".08" stroke-width="1"/>
    <path d="M500,300 C530,290 560,285 590,280" fill="none" stroke="#84cc16" stroke-opacity=".08" stroke-width="1"/>
    <path d="M500,300 C490,320 485,340 480,360" fill="none" stroke="#84cc16" stroke-opacity=".06" stroke-width=".8"/>
    <path d="M500,300 C515,315 525,330 540,345" fill="none" stroke="#84cc16" stroke-opacity=".06" stroke-width=".8"/>
  </g>

  <!-- interneuron at ~700,100 -->
  <g class="dp2">
    <path d="M700,100 C670,90 640,85 610,80" fill="none" stroke="#84cc16" stroke-opacity=".08" stroke-width="1"/>
    <path d="M700,100 C730,90 760,85 790,80" fill="none" stroke="#84cc16" stroke-opacity=".08" stroke-width="1"/>
    <path d="M700,100 C690,80 685,60 680,40" fill="none" stroke="#84cc16" stroke-opacity=".06" stroke-width=".8"/>
    <path d="M700,100 C715,85 725,70 740,55" fill="none" stroke="#84cc16" stroke-opacity=".06" stroke-width=".8"/>
  </g>

  <!-- ==================== INTER-NEURON AXON CONNECTIONS ==================== -->
  <!-- Long-range connections between neuron clusters -->
  <path d="M230,140 C280,170 320,190 350,200" fill="none" stroke="#a3e635" stroke-opacity=".1" stroke-width="1" class="dp1"/>
  <path d="M210,270 C260,250 310,230 350,200" fill="none" stroke="#a3e635" stroke-opacity=".08" stroke-width=".9" class="dp2"/>
  <path d="M350,200 C420,195 480,200 530,210" fill="none" stroke="#a3e635" stroke-opacity=".12" stroke-width="1.1" class="dp3"/>
  <path d="M670,190 C720,195 780,200 850,200" fill="none" stroke="#a3e635" stroke-opacity=".12" stroke-width="1.1" class="dp1"/>
  <path d="M850,200 C890,180 930,150 970,140" fill="none" stroke="#a3e635" stroke-opacity=".08" stroke-width=".9" class="dp2"/>
  <path d="M850,200 C890,230 940,260 990,270" fill="none" stroke="#a3e635" stroke-opacity=".08" stroke-width=".9" class="dp3"/>
  <path d="M310,70 C340,100 350,140 350,200" fill="none" stroke="#a3e635" stroke-opacity=".08" stroke-width=".9" class="dp2"/>
  <path d="M290,320 C320,290 340,250 350,200" fill="none" stroke="#a3e635" stroke-opacity=".07" stroke-width=".8" class="dp3"/>
  <path d="M890,90 C870,120 860,160 850,200" fill="none" stroke="#a3e635" stroke-opacity=".08" stroke-width=".9" class="dp1"/>
  <path d="M910,320 C880,290 860,250 850,200" fill="none" stroke="#a3e635" stroke-opacity=".07" stroke-width=".8" class="dp2"/>

  <!-- Synaptic cleft connections (short gaps between axon terminals and dendrites) -->
  <g opacity=".4">
    <path d="M445,155 C455,150 465,148 475,150" fill="none" stroke="#a3e635" stroke-opacity=".15" stroke-width=".5" stroke-dasharray="2,3"/>
    <path d="M450,178 C460,178 470,180 480,182" fill="none" stroke="#a3e635" stroke-opacity=".15" stroke-width=".5" stroke-dasharray="2,3"/>
    <path d="M442,198 C452,200 462,205 472,210" fill="none" stroke="#a3e635" stroke-opacity=".15" stroke-width=".5" stroke-dasharray="2,3"/>
    <path d="M755,202 C745,198 735,195 725,192" fill="none" stroke="#a3e635" stroke-opacity=".15" stroke-width=".5" stroke-dasharray="2,3"/>
    <path d="M750,228 C740,228 730,225 720,222" fill="none" stroke="#a3e635" stroke-opacity=".15" stroke-width=".5" stroke-dasharray="2,3"/>
    <path d="M758,248 C748,250 738,252 728,250" fill="none" stroke="#a3e635" stroke-opacity=".15" stroke-width=".5" stroke-dasharray="2,3"/>
  </g>

  <!-- ==================== SOMA (cell bodies) with glow ==================== -->
  <!-- Main somas -->
  <circle cx="130" cy="190" r="20" fill="none" filter="url(#somaF)" class="sg1">
    <animate attributeName="r" values="18;22;18" dur="4s" repeatCount="indefinite"/>
  </circle>
  <g filter="url(#ng)" class="sg1">
    <circle cx="130" cy="190" r="7" fill="#0a0a0f" stroke="#a3e635" stroke-width="1.5"/>
    <circle cx="130" cy="190" r="3" fill="#a3e635"/>
    <circle cx="130" cy="190" fill="none" stroke="#a3e635" stroke-width=".4">
      <animate attributeName="r" values="7;16;7" dur="4s" repeatCount="indefinite"/>
      <animate attributeName="stroke-opacity" values=".4;0;.4" dur="4s" repeatCount="indefinite"/>
    </circle>
  </g>

  <circle cx="1070" cy="210" r="20" fill="none" filter="url(#somaF)" class="sg2">
    <animate attributeName="r" values="18;22;18" dur="4s" begin="1s" repeatCount="indefinite"/>
  </circle>
  <g filter="url(#ng)" class="sg2">
    <circle cx="1070" cy="210" r="7" fill="#0a0a0f" stroke="#a3e635" stroke-width="1.5"/>
    <circle cx="1070" cy="210" r="3" fill="#a3e635"/>
    <circle cx="1070" cy="210" fill="none" stroke="#a3e635" stroke-width=".4">
      <animate attributeName="r" values="7;16;7" dur="4s" begin="1s" repeatCount="indefinite"/>
      <animate attributeName="stroke-opacity" values=".4;0;.4" dur="4s" begin="1s" repeatCount="indefinite"/>
    </circle>
  </g>

  <!-- Secondary somas -->
  <g filter="url(#ng)" class="sg3">
    <circle cx="220" cy="80" r="5" fill="#0a0a0f" stroke="#a3e635" stroke-width="1.2"/>
    <circle cx="220" cy="80" r="2" fill="#a3e635"/>
    <circle cx="220" cy="80" fill="none" stroke="#a3e635" stroke-width=".3">
      <animate attributeName="r" values="5;11;5" dur="3.5s" repeatCount="indefinite"/>
      <animate attributeName="stroke-opacity" values=".3;0;.3" dur="3.5s" repeatCount="indefinite"/>
    </circle>
  </g>
  <g filter="url(#ng)" class="sg4">
    <circle cx="200" cy="330" r="5" fill="#0a0a0f" stroke="#a3e635" stroke-width="1.2"/>
    <circle cx="200" cy="330" r="2" fill="#a3e635"/>
    <circle cx="200" cy="330" fill="none" stroke="#a3e635" stroke-width=".3">
      <animate attributeName="r" values="5;11;5" dur="3.5s" begin=".8s" repeatCount="indefinite"/>
      <animate attributeName="stroke-opacity" values=".3;0;.3" dur="3.5s" begin=".8s" repeatCount="indefinite"/>
    </circle>
  </g>
  <g filter="url(#ng)" class="sg1">
    <circle cx="980" cy="70" r="5" fill="#0a0a0f" stroke="#a3e635" stroke-width="1.2"/>
    <circle cx="980" cy="70" r="2" fill="#a3e635"/>
    <circle cx="980" cy="70" fill="none" stroke="#a3e635" stroke-width=".3">
      <animate attributeName="r" values="5;11;5" dur="3.5s" begin="1.6s" repeatCount="indefinite"/>
      <animate attributeName="stroke-opacity" values=".3;0;.3" dur="3.5s" begin="1.6s" repeatCount="indefinite"/>
    </circle>
  </g>
  <g filter="url(#ng)" class="sg2">
    <circle cx="1000" cy="330" r="5" fill="#0a0a0f" stroke="#a3e635" stroke-width="1.2"/>
    <circle cx="1000" cy="330" r="2" fill="#a3e635"/>
    <circle cx="1000" cy="330" fill="none" stroke="#a3e635" stroke-width=".3">
      <animate attributeName="r" values="5;11;5" dur="3.5s" begin="2.4s" repeatCount="indefinite"/>
      <animate attributeName="stroke-opacity" values=".3;0;.3" dur="3.5s" begin="2.4s" repeatCount="indefinite"/>
    </circle>
  </g>

  <!-- Interneuron somas (smaller) -->
  <g filter="url(#ng)" class="sg3">
    <circle cx="350" cy="200" r="4" fill="#0a0a0f" stroke="#a3e635" stroke-width="1"/>
    <circle cx="350" cy="200" r="1.5" fill="#a3e635"/>
  </g>
  <g filter="url(#ng)" class="sg4">
    <circle cx="850" cy="200" r="4" fill="#0a0a0f" stroke="#a3e635" stroke-width="1"/>
    <circle cx="850" cy="200" r="1.5" fill="#a3e635"/>
  </g>
  <g filter="url(#ng)" class="sg1">
    <circle cx="500" cy="300" r="3.5" fill="#0a0a0f" stroke="#a3e635" stroke-width=".8"/>
    <circle cx="500" cy="300" r="1.2" fill="#a3e635"/>
  </g>
  <g filter="url(#ng)" class="sg2">
    <circle cx="700" cy="100" r="3.5" fill="#0a0a0f" stroke="#a3e635" stroke-width=".8"/>
    <circle cx="700" cy="100" r="1.2" fill="#a3e635"/>
  </g>

  <!-- Tiny peripheral nodes -->
  <g filter="url(#ngf)">
    <circle cx="50" cy="160" r="1.5" fill="#84cc16" class="bs1"/>
    <circle cx="30" cy="250" r="1" fill="#84cc16" class="bs2"/>
    <circle cx="85" cy="28" r="1" fill="#84cc16" class="bs3"/>
    <circle cx="1150" cy="170" r="1.5" fill="#84cc16" class="bs2"/>
    <circle cx="1170" cy="290" r="1" fill="#84cc16" class="bs3"/>
    <circle cx="1115" cy="15" r="1" fill="#84cc16" class="bs4"/>
    <circle cx="370" cy="50" r="1.2" fill="#84cc16" class="bs1"/>
    <circle cx="830" cy="108" r="1.2" fill="#84cc16" class="bs3"/>
    <circle cx="350" cy="300" r="1" fill="#84cc16" class="bs4"/>
    <circle cx="850" cy="300" r="1" fill="#84cc16" class="bs2"/>
  </g>

  <!-- ==================== SYNAPTIC FIRING FLASHES ==================== -->
  <!-- Brief bright flashes at synaptic junctions -->
  <circle cx="445" cy="155" r="8" fill="#a3e635" class="ff1" filter="url(#ngf)"/>
  <circle cx="450" cy="178" r="8" fill="#a3e635" class="ff2" filter="url(#ngf)"/>
  <circle cx="442" cy="198" r="8" fill="#a3e635" class="ff3" filter="url(#ngf)"/>
  <circle cx="755" cy="202" r="8" fill="#a3e635" class="ff4" filter="url(#ngf)"/>
  <circle cx="750" cy="228" r="8" fill="#a3e635" class="ff5" filter="url(#ngf)"/>
  <circle cx="758" cy="248" r="8" fill="#a3e635" class="ff6" filter="url(#ngf)"/>

  <!-- ==================== TRAVELING SIGNALS ==================== -->
  <circle r="4" fill="url(#sg)" opacity="0">
    <animateMotion dur="5s" repeatCount="indefinite"><mpath href="#p1"/></animateMotion>
    <animate attributeName="opacity" values="0;.9;.9;.9;0" dur="5s" repeatCount="indefinite"/>
    <animate attributeName="r" values="3;5;3" dur="2.5s" repeatCount="indefinite"/>
  </circle>
  <circle r="3.5" fill="url(#sg)" opacity="0">
    <animateMotion dur="5.5s" begin="1.5s" repeatCount="indefinite"><mpath href="#p2"/></animateMotion>
    <animate attributeName="opacity" values="0;.8;.8;.8;0" dur="5.5s" begin="1.5s" repeatCount="indefinite"/>
    <animate attributeName="r" values="2.5;4.5;2.5" dur="2.75s" repeatCount="indefinite"/>
  </circle>
  <circle r="3" fill="url(#sg)" opacity="0">
    <animateMotion dur="6s" begin="3s" repeatCount="indefinite"><mpath href="#p3"/></animateMotion>
    <animate attributeName="opacity" values="0;.7;.7;.7;0" dur="6s" begin="3s" repeatCount="indefinite"/>
  </circle>
  <circle r="3" fill="url(#sg)" opacity="0">
    <animateMotion dur="5.5s" begin="2s" repeatCount="indefinite"><mpath href="#p4"/></animateMotion>
    <animate attributeName="opacity" values="0;.7;.7;.7;0" dur="5.5s" begin="2s" repeatCount="indefinite"/>
  </circle>
  <circle r="3.5" fill="url(#sg)" opacity="0">
    <animateMotion dur="5s" begin="4s" repeatCount="indefinite"><mpath href="#p5"/></animateMotion>
    <animate attributeName="opacity" values="0;.8;.8;.8;0" dur="5s" begin="4s" repeatCount="indefinite"/>
  </circle>
  <circle r="3" fill="url(#sg)" opacity="0">
    <animateMotion dur="5.5s" begin="0.5s" repeatCount="indefinite"><mpath href="#p6"/></animateMotion>
    <animate attributeName="opacity" values="0;.7;.7;.7;0" dur="5.5s" begin="0.5s" repeatCount="indefinite"/>
  </circle>
  <circle r="2.5" fill="url(#sg)" opacity="0">
    <animateMotion dur="4s" begin="2.5s" repeatCount="indefinite"><mpath href="#p7"/></animateMotion>
    <animate attributeName="opacity" values="0;.6;.6;.6;0" dur="4s" begin="2.5s" repeatCount="indefinite"/>
  </circle>
  <circle r="2.5" fill="url(#sg)" opacity="0">
    <animateMotion dur="4s" begin="1s" repeatCount="indefinite"><mpath href="#p8"/></animateMotion>
    <animate attributeName="opacity" values="0;.6;.6;.6;0" dur="4s" begin="1s" repeatCount="indefinite"/>
  </circle>

  <!-- ==================== FLOATING PARTICLES ==================== -->
  <circle cx="450" cy="90" r="1" fill="#d9f99d">
    <animate attributeName="cy" values="90;70;90" dur="5s" repeatCount="indefinite"/>
    <animate attributeName="opacity" values=".2;.5;.2" dur="5s" repeatCount="indefinite"/>
  </circle>
  <circle cx="750" cy="310" r="1.2" fill="#d9f99d">
    <animate attributeName="cy" values="310;295;310" dur="6s" begin="1s" repeatCount="indefinite"/>
    <animate attributeName="opacity" values=".15;.4;.15" dur="6s" begin="1s" repeatCount="indefinite"/>
  </circle>
  <circle cx="350" cy="120" r=".8" fill="#d9f99d">
    <animate attributeName="cy" values="120;105;120" dur="4.5s" begin=".5s" repeatCount="indefinite"/>
    <animate attributeName="opacity" values=".2;.45;.2" dur="4.5s" begin=".5s" repeatCount="indefinite"/>
  </circle>
  <circle cx="550" cy="310" r="1" fill="#d9f99d">
    <animate attributeName="cy" values="310;325;310" dur="5.5s" begin="2s" repeatCount="indefinite"/>
    <animate attributeName="opacity" values=".2;.4;.2" dur="5.5s" begin="2s" repeatCount="indefinite"/>
  </circle>
  <circle cx="850" cy="90" r=".8" fill="#d9f99d">
    <animate attributeName="cy" values="90;75;90" dur="4s" begin="1.5s" repeatCount="indefinite"/>
    <animate attributeName="opacity" values=".15;.35;.15" dur="4s" begin="1.5s" repeatCount="indefinite"/>
  </circle>
  <circle cx="650" cy="85" r=".8" fill="#d9f99d">
    <animate attributeName="cy" values="85;68;85" dur="6.5s" begin="3s" repeatCount="indefinite"/>
    <animate attributeName="opacity" values=".2;.4;.2" dur="6.5s" begin="3s" repeatCount="indefinite"/>
  </circle>

  <!-- ==================== CYBERPUNK HUD ==================== -->
  <g class="hf1">
    <text x="50" y="25" fill="#a3e635" font-family="monospace" font-size="8" opacity=".4">0x7F3A :: SYNAPSE_CORE</text>
  </g>
  <g class="hf2">
    <text x="900" y="25" fill="#a3e635" font-family="monospace" font-size="8" opacity=".4">SKILL_REGISTRY v4.2.1</text>
  </g>
  <g class="hf2">
    <text x="50" y="388" fill="#a3e635" font-family="monospace" font-size="8" opacity=".4">PIPELINE::ACTIVE</text>
  </g>
  <g class="hf1">
    <text x="880" y="388" fill="#a3e635" font-family="monospace" font-size="8" opacity=".4">NEURONS: 12 :: SYNAPSES: 86</text>
  </g>

  <!-- Decorative lines + ticks -->
  <line x1="40" y1="38" x2="300" y2="38" stroke="#a3e635" stroke-opacity=".08" stroke-width=".5"/>
  <line x1="900" y1="38" x2="1160" y2="38" stroke="#a3e635" stroke-opacity=".08" stroke-width=".5"/>
  <line x1="40" y1="375" x2="300" y2="375" stroke="#a3e635" stroke-opacity=".08" stroke-width=".5"/>
  <line x1="900" y1="375" x2="1160" y2="375" stroke="#a3e635" stroke-opacity=".08" stroke-width=".5"/>
  <g stroke="#a3e635" stroke-opacity=".15" stroke-width=".5">
    <line x1="40" y1="35" x2="40" y2="41"/><line x1="100" y1="36" x2="100" y2="40"/>
    <line x1="160" y1="35" x2="160" y2="41"/><line x1="220" y1="36" x2="220" y2="40"/>
    <line x1="300" y1="35" x2="300" y2="41"/><line x1="1160" y1="35" x2="1160" y2="41"/>
    <line x1="1100" y1="36" x2="1100" y2="40"/><line x1="1040" y1="35" x2="1040" y2="41"/>
    <line x1="980" y1="36" x2="980" y2="40"/><line x1="900" y1="35" x2="900" y2="41"/>
  </g>

  <!-- ==================== CENTRAL TITLE ==================== -->

  <!-- Hexagonal frame — solid dark background to cover neurons behind text -->
  <!-- Subtitle "SKILL ORCHESTRATION FRAMEWORK" at size 12 + letter-spacing 10 spans ~530px -->
  <!-- So from center 600: ~335 to ~865. Hex edges need 30px+ padding beyond that. -->
  <polygon points="600,95 900,135 900,250 600,290 300,250 300,135" fill="#0a0a0f" stroke="#a3e635" stroke-opacity=".12" stroke-width="1"/>
  <polygon points="600,101 894,139 894,246 600,284 306,246 306,139" fill="#070b07" stroke="#a3e635" stroke-opacity=".06" stroke-width=".5"/>

  <!-- Title -->
  <g filter="url(#tn)" class="title-glow">
    <text x="600" y="172" fill="url(#tg)" font-family="'Courier New','Fira Code',monospace" font-size="58" font-weight="bold" text-anchor="middle" dominant-baseline="central" letter-spacing="8">AI-SYNAPSE</text>
  </g>

  <!-- Subtitle -->
  <text x="600" y="220" fill="#a3e635" font-family="'Courier New',monospace" font-size="12" text-anchor="middle" dominant-baseline="central" letter-spacing="10" class="sub-glow">SKILL ORCHESTRATION FRAMEWORK</text>

  <!-- Flanking lines -->
  <line x1="270" y1="192" x2="306" y2="192" stroke="#a3e635" stroke-opacity=".3" stroke-width="1"/>
  <line x1="894" y1="192" x2="930" y2="192" stroke="#a3e635" stroke-opacity=".3" stroke-width="1"/>
  <circle cx="270" cy="192" r="2" fill="#a3e635">
    <animate attributeName="opacity" values=".3;.8;.3" dur="2s" repeatCount="indefinite"/>
  </circle>
  <circle cx="930" cy="192" r="2" fill="#a3e635">
    <animate attributeName="opacity" values=".3;.8;.3" dur="2s" begin="1s" repeatCount="indefinite"/>
  </circle>

  <!-- ==================== SIDE ACCENTS ==================== -->
  <rect x="18" y="60" width="2" height="280" fill="url(#lv)" rx="1" class="sh-l"/>
  <rect x="24" y="100" width="1" height="200" fill="url(#lv)" opacity=".08" rx=".5"/>
  <rect x="1180" y="60" width="2" height="280" fill="url(#lv)" rx="1" class="sh-r"/>
  <rect x="1175" y="100" width="1" height="200" fill="url(#lv)" opacity=".08" rx=".5"/>
  <polygon points="19,60 22,55 25,60 22,65" fill="#a3e635" class="dm1"/>
  <polygon points="19,340 22,335 25,340 22,345" fill="#a3e635" class="dm2"/>
  <polygon points="1177,60 1180,55 1183,60 1180,65" fill="#a3e635" class="dm2"/>
  <polygon points="1177,340 1180,335 1183,340 1180,345" fill="#a3e635" class="dm1"/>
</svg>
